<svg width="38" height="38" viewBox="0 0 38 38" fill="none" xmlns="http://www.w3.org/2000/svg">
<circle cx="19" cy="19" r="18" stroke="#3279BE" stroke-width="2"/>
<path d="M13.736 24V18.258C14.132 17.484 14.69 17.106 15.428 17.106C15.806 17.106 16.184 17.214 16.526 17.412L17.03 16.062C16.76 15.864 16.328 15.756 15.77 15.756C14.906 15.756 14.222 16.116 13.736 16.854V15.9H12.296V24H13.736ZM24.0832 15.9V21.624C23.5612 22.326 22.6432 22.83 21.7612 22.83C20.3752 22.83 19.6732 22.02 19.6732 20.4V15.9H18.2332V20.724C18.2332 23.028 19.3492 24.18 21.2212 24.18C22.4272 24.18 23.4532 23.586 24.0832 22.848V24H25.5232V15.9H24.0832Z" fill="#3279BE"/>
</svg>
