<svg width="175" height="39" viewBox="0 0 175 39" fill="none" xmlns="http://www.w3.org/2000/svg">
<path d="M128.153 2.94024V3.95117H126.053V30.6948H130.009V31.7058C128.397 33.0843 128.446 36.3469 128.446 38.2768H127.567C127.567 35.0143 125.418 31.7058 121.608 31.7058H113.355C109.789 31.7058 106.957 34.8305 106.957 38.093V38.2768H106.078C106.078 36.3469 106.126 33.0843 104.515 31.7058V30.6948H108.471C108.471 21.4586 113.794 13.0955 120.192 6.38659V3.90522H117.897V2.89429H128.153V2.94024ZM120.143 8.31655C114.331 15.1173 109.887 21.5965 109.887 30.6948H120.143V8.31655Z" fill="#0466BB"/>
<path d="M152.133 2.93994V3.95087H149.935V30.6946H152.133V31.7055H141.828V30.6946H144.026V25.5021C141.535 28.4429 136.26 32.0271 132.109 32.0271C130.693 32.0271 130.595 30.281 130.595 29.316C130.595 25.0885 131.621 21.78 133.818 18.1498C136.553 13.5547 140.216 9.60289 144.074 5.78893V3.95087H141.877V2.93994H152.133ZM144.026 7.35127C140.07 11.6707 135.674 17.1389 135.674 23.1126C135.674 25.0885 137.091 26.3292 139.239 26.3292C141.291 26.3292 142.56 25.2723 144.026 24.0776V7.35127Z" fill="#0466BB"/>
<path d="M155.454 30.6955V13.0502C155.454 7.21436 160.875 2.98684 166.247 1.05688C168.006 0.413563 169.959 0 171.815 0C173.72 0 174.403 1.05688 174.403 2.71113C174.403 7.03055 165.026 17.1858 161.363 19.805V30.6955H163.805V31.7064H153.5V30.6955H155.454ZM168.592 5.92772C168.592 4.27347 168.103 2.20566 165.906 2.20566C164.147 2.20566 162.243 6.8008 161.852 8.04148C161.608 8.86861 161.363 9.78763 161.363 10.6607V18.5184C164.538 15.3937 168.592 10.4769 168.592 5.92772Z" fill="#0466BB"/>
<path d="M21.5867 2.93994V3.95087H19.389V30.6946H21.5867V31.7055H11.2329V30.6946H13.4307V25.5021C10.9399 28.4429 5.6653 32.0271 1.514 32.0271C0.0976767 32.0271 0 30.281 0 29.316C0 25.0885 1.02561 21.78 3.22336 18.1498C5.95833 13.5547 9.62124 9.60289 13.4795 5.78893V3.95087H11.2818V2.93994H21.5867ZM13.4307 7.35127C9.52356 11.7167 5.12807 17.1389 5.12807 23.1126C5.12807 25.0885 6.54439 26.3292 8.6933 26.3292C10.7445 26.3292 12.0143 25.2723 13.4795 24.0776V7.35127H13.4307Z" fill="#0466BB"/>
<path d="M48.0082 30.6954V31.7063H38.9731C40.3405 28.0302 39.1684 21.4592 36.1892 18.748L31.2565 14.3367H31.1588V30.7413H33.4054V31.7523H23.1493V30.7413H25.2982V3.95171H23.1493V2.94078H33.4543V3.95171H31.2077V11.258H31.3054L34.138 6.84664C35.2125 5.19239 37.2149 2.84888 39.4614 2.84888C40.3894 2.84888 42.4406 3.21649 42.8313 4.08956C42.2941 5.74381 42.4894 8.04138 42.5383 9.74157H41.6103C41.5615 7.90352 39.5591 6.01952 37.6056 6.01952C36.4823 6.01952 35.1636 7.67376 34.5776 8.45494C33.4543 9.97133 32.331 11.4877 31.2565 13.0041L38.387 17.9209C42.2453 20.632 46.4454 25.2731 46.4454 30.0521C46.4454 30.2359 46.4454 30.5116 46.3965 30.6954H48.0082Z" fill="#0466BB"/>
<path d="M50.9876 30.6955V13.0502C50.9876 7.30626 56.2133 3.07874 61.4879 1.19474C63.295 0.505467 65.395 0 67.3486 0C69.2533 0 69.937 1.05688 69.937 2.71113C69.937 5.78987 63.7834 11.3959 61.3903 13.234C59.9739 14.3368 58.5088 15.3477 56.8971 16.2208C65.1508 18.4724 70.0347 23.7109 71.158 31.7064H48.8387V30.6955H50.9876ZM64.0764 5.78987C64.0764 4.13562 63.588 2.06781 61.3903 2.06781C59.5832 2.06781 57.7762 5.14655 57.3366 6.47914C57.0436 7.26031 56.8482 8.08743 56.8482 8.91456V15.3018C59.5832 13.0961 64.0764 9.37407 64.0764 5.78987ZM63.9299 30.6955C63.9299 25.3192 62.5135 19.5753 56.8971 17.0479V30.6955H63.9299Z" fill="#0466BB"/>
<path d="M94.4541 2.93994V3.95087H92.2564V30.6946H94.4541V31.7055H84.1491V30.6946H86.3469V25.5021C83.8561 28.4429 78.5815 32.0271 74.4302 32.0271C73.0139 32.0271 72.9162 30.281 72.9162 29.316C72.9162 25.0885 73.9418 21.78 76.1396 18.1498C78.8746 13.5547 82.5375 9.60289 86.3957 5.78893V3.95087H84.198V2.93994H94.4541ZM86.298 7.35127C82.3421 11.6707 77.9466 17.1389 77.9466 23.1126C77.9466 25.0885 79.3629 26.3292 81.5118 26.3292C83.5631 26.3292 84.8329 25.2723 86.298 24.0776V7.35127Z" fill="#0466BB"/>
<path d="M104.075 21.5045C104.075 22.7452 103.001 23.7561 101.682 23.7561C100.364 23.7561 99.2892 22.6992 99.2892 21.5045C99.2892 20.3098 100.364 19.2988 101.682 19.2988C103.001 19.2988 104.075 20.3098 104.075 21.5045Z" fill="#0466BB"/>
</svg>
