<svg width="47" height="47" viewBox="0 0 47 47" fill="none" xmlns="http://www.w3.org/2000/svg">
<g filter="url(#filter0_d)">
<circle cx="23.5" cy="19.5" r="19.5" fill="white"/>
<g clip-path="url(#clip0)">
<path d="M34.155 21.893C34.871 15.866 33.811 12.061 31.899 10.34L31.9 10.339C28.814 7.40002 18.392 6.96502 14.7 10.471C13.042 12.186 12.458 14.703 12.394 17.819C12.33 20.936 12.254 26.775 17.695 28.359H17.7L17.695 30.778C17.695 30.778 17.658 31.758 18.284 31.955C19 32.187 19.324 31.732 21.551 29.072C25.275 29.395 28.135 28.655 28.46 28.547C29.212 28.295 33.467 27.732 34.155 21.893ZM21.918 27.37C21.918 27.37 19.561 30.309 18.828 31.072C18.588 31.32 18.325 31.297 18.329 30.805C18.329 30.482 18.347 26.789 18.347 26.789C13.734 25.467 14.006 20.495 14.056 17.894C14.106 15.292 14.582 13.161 15.986 11.726C19.225 8.68902 28.362 9.36802 30.69 11.556C33.536 14.079 32.523 21.207 32.529 21.45C31.944 26.324 28.496 26.633 27.862 26.844C27.591 26.934 25.076 27.581 21.918 27.37Z" fill="#3279BE"/>
<path d="M23.222 12.2969C22.837 12.2969 22.837 12.8969 23.222 12.9019C26.209 12.9249 28.669 15.0069 28.696 18.8259C28.696 19.2289 29.286 19.2239 29.281 18.8209H29.28C29.248 14.7059 26.562 12.3199 23.222 12.2969Z" fill="#3279BE"/>
<path d="M27.151 18.193C27.142 18.591 27.731 18.61 27.736 18.207C27.785 15.938 26.386 14.069 23.757 13.872C23.372 13.844 23.332 14.449 23.716 14.477C25.996 14.65 27.197 16.206 27.151 18.193Z" fill="#3279BE"/>
<path d="M26.521 20.7741C26.027 20.4881 25.524 20.6661 25.316 20.9471L24.881 21.5101C24.66 21.7961 24.247 21.7581 24.247 21.7581C21.233 20.9611 20.427 17.8071 20.427 17.8071C20.427 17.8071 20.39 17.3801 20.666 17.1511L21.21 16.7011C21.482 16.4851 21.654 15.9651 21.377 15.4541C20.637 14.1171 20.14 13.6561 19.887 13.3021C19.621 12.9691 19.221 12.8941 18.805 13.1191H18.796C17.931 13.6251 16.984 14.5721 17.287 15.5471C17.804 16.5751 18.754 19.8521 21.782 22.3281C23.205 23.4991 25.457 24.6991 26.413 24.9761L26.422 24.9901C27.364 25.3041 28.28 24.3201 28.769 23.4291V23.4221C28.986 22.9911 28.914 22.5831 28.597 22.3161C28.035 21.7681 27.187 21.1631 26.521 20.7741Z" fill="#3279BE"/>
<path d="M24.169 16.1039C25.13 16.1599 25.596 16.6619 25.646 17.6929C25.664 18.0959 26.249 18.0679 26.231 17.6649C26.167 16.3189 25.465 15.5689 24.201 15.4989C23.816 15.4759 23.78 16.0809 24.169 16.1039Z" fill="#3279BE"/>
</g>
</g>
<defs>
<filter id="filter0_d" x="0" y="0" width="47" height="47" filterUnits="userSpaceOnUse" color-interpolation-filters="sRGB">
<feFlood flood-opacity="0" result="BackgroundImageFix"/>
<feColorMatrix in="SourceAlpha" type="matrix" values="0 0 0 0 0 0 0 0 0 0 0 0 0 0 0 0 0 0 127 0"/>
<feOffset dy="4"/>
<feGaussianBlur stdDeviation="2"/>
<feColorMatrix type="matrix" values="0 0 0 0 0.92549 0 0 0 0 0.92549 0 0 0 0 0.94902 0 0 0 1 0"/>
<feBlend mode="normal" in2="BackgroundImageFix" result="effect1_dropShadow"/>
<feBlend mode="normal" in="SourceGraphic" in2="effect1_dropShadow" result="shape"/>
</filter>
<clipPath id="clip0">
<rect width="24" height="24" fill="white" transform="translate(11 8)"/>
</clipPath>
</defs>
</svg>
